<?xml version="1.0" encoding="UTF-8" standalone="no"?>
<!-- Created with Inkscape (http://www.inkscape.org/) -->

<svg
   width="11.173316mm"
   height="27.319355mm"
   viewBox="0 0 11.173316 27.319355"
   version="1.1"
   id="svg1"
   xmlns="http://www.w3.org/2000/svg"
   xmlns:svg="http://www.w3.org/2000/svg">
  <defs
     id="defs1" />
  <g
     id="layer1"
     transform="translate(-170.85618,-16.345923)">
    <g
       id="g17"
       transform="matrix(1.2821246,0,0,1.2821246,-50.283164,-10.253913)"
       style="stroke-width:0.999903;stroke-dasharray:none">
      <path
         style="fill:#ffc126;fill-opacity:1;stroke:none;stroke-width:0.999903;stroke-linecap:round;stroke-linejoin:round;stroke-dasharray:none;stroke-opacity:1;paint-order:markers fill stroke"
         d="m 173.04611,38.391663 c 1.95979,-0.404656 3.32716,-3.07299 3.88831,-3.087215 0.56115,-0.01422 2.22113,2.7154 3.69083,3.072406 0.0115,0.181578 0.0561,3.17776 0.0561,3.17776 h -7.69041 z"
         id="path9" />
      <path
         style="fill:#ffc126;fill-opacity:1;stroke:none;stroke-width:0.999903;stroke-linecap:round;stroke-linejoin:round;stroke-dasharray:none;stroke-opacity:1;paint-order:markers fill stroke"
         d="m 173.11044,25.181309 h 7.45147 c 0,0 -1.60567,4.980321 -2.96638,6.219316 -0.67082,0.362016 -0.78274,0.38587 -1.5187,0 -1.19701,-1.075292 -2.96639,-6.219316 -2.96639,-6.219316 z"
         id="path17" />
      <path
         id="path9-3-1"
         style="fill:none;fill-opacity:1;stroke:#111111;stroke-width:0.999903;stroke-linecap:round;stroke-linejoin:round;stroke-dasharray:none;stroke-opacity:1;paint-order:markers fill stroke"
         d="m 176.83618,41.554613 h 3.8452 c 0,0 0.12175,-3.733006 -0.4039,-5.583516 -0.52566,-1.85051 -2.68195,-4.570472 -2.68195,-4.570472 m -0.75935,10.153988 h -3.84521 c 0,0 -0.12175,-3.733006 0.40391,-5.583516 0.52565,-1.85051 2.68195,-4.570472 2.68195,-4.570472 m 0.75935,-10.153988 h 3.8452 c 0,0 0.12175,3.733006 -0.4039,5.583516 -0.52566,1.85051 -2.68195,4.570472 -2.68195,4.570472 m -0.75935,-10.153988 h -3.84521 c 0,0 -0.12175,3.733006 0.40391,5.583516 0.52565,1.85051 2.68195,4.570472 2.68195,4.570472" />
    </g>
  </g>
</svg>
