<?xml version="1.0" encoding="UTF-8" standalone="no"?>
<!-- Created with Inkscape (http://www.inkscape.org/) -->

<svg
   width="200mm"
   height="100mm"
   viewBox="0 0 200 100"
   version="1.1"
   id="svg1"
   xmlns:xlink="http://www.w3.org/1999/xlink"
   xmlns="http://www.w3.org/2000/svg"
   xmlns:svg="http://www.w3.org/2000/svg">
  <defs
     id="defs1">
    <linearGradient
       id="linearGradient4">
      <stop
         style="stop-color:#000000;stop-opacity:1;"
         offset="0"
         id="stop4" />
      <stop
         style="stop-color:#000000;stop-opacity:0;"
         offset="1"
         id="stop5" />
    </linearGradient>
    <linearGradient
       id="linearGradient20">
      <stop
         style="stop-color:#000000;stop-opacity:1;"
         offset="0"
         id="stop20" />
      <stop
         style="stop-color:#000000;stop-opacity:0;"
         offset="1"
         id="stop21" />
    </linearGradient>
    <linearGradient
       xlink:href="#linearGradient20"
       id="linearGradient9"
       gradientUnits="userSpaceOnUse"
       gradientTransform="matrix(0.62861062,0,0,0.62861062,-48.89349,27.322928)"
       x1="135.341"
       y1="65.659035"
       x2="159.36804"
       y2="59.772057" />
    <linearGradient
       xlink:href="#linearGradient20"
       id="linearGradient1"
       gradientUnits="userSpaceOnUse"
       gradientTransform="matrix(0.62861062,0,0,0.62861062,-48.89349,27.322928)"
       x1="135.341"
       y1="65.659035"
       x2="159.36804"
       y2="59.772057" />
    <linearGradient
       xlink:href="#linearGradient4"
       id="linearGradient5"
       x1="27.634905"
       y1="75.704605"
       x2="42.415199"
       y2="67.726006"
       gradientUnits="userSpaceOnUse"
       gradientTransform="matrix(1,-0.00130503,0,0.67207933,0.06177069,24.895478)" />
  </defs>
  <rect
     style="fill:none;fill-opacity:1;stroke:none;stroke-width:0.499637;stroke-linecap:round;stroke-linejoin:round;paint-order:markers fill stroke"
     id="rect9"
     width="50"
     height="50"
     x="7.338379e-06"
     y="-2.1115723e-06" />
  <g
     id="g1"
     transform="translate(0.10008589,1.0444507)">
    <g
       id="g3-5"
       transform="translate(112.03955,6.0843385)">
      <g
         id="g2-1">
        <path
           id="path1-11-7-1-7"
           style="opacity:0.4775;fill:url(#linearGradient9);fill-opacity:1;stroke:none;stroke-width:0.650612;stroke-linecap:round;stroke-linejoin:round;stroke-dasharray:none;stroke-opacity:1;paint-order:markers fill stroke"
           d="m 43.465062,64.909259 -3.239029,0.93108 h 0.337061 l -9.514531,3.043215 4.374495,-0.424375 4.223256,0.421193 14.107024,-3.040033 h 0.277305 l 5.23168,-0.93108 h -7.962145 z" />
        <path
           id="path1-11-1-11"
           style="fill:#ffc126;fill-opacity:1;stroke:#bd9227;stroke-width:1.25722;stroke-linecap:round;stroke-linejoin:round;stroke-dasharray:none;stroke-opacity:1;paint-order:stroke fill markers"
           d="m 28.058621,54.858482 3.073994,13.399143 h 4.209975 4.210295 L 42.626879,54.858482 H 35.34259 Z" />
        <path
           id="path1-1-3-5-52"
           style="fill:#d19a10;fill-opacity:1;stroke:#9a7a2b;stroke-width:1.31068;stroke-linecap:round;stroke-linejoin:round;stroke-dasharray:none;stroke-opacity:1;paint-order:stroke fill markers"
           d="m 27.708969,54.788788 0.812542,3.532697 H 42.10517 l 0.812542,-3.532697 h -7.604541 z" />
        <path
           id="path1-11-6-2-7"
           style="opacity:0.6175;fill:#ffde90;fill-opacity:1;stroke:#ffde90;stroke-width:1.11785;stroke-linecap:round;stroke-linejoin:round;stroke-dasharray:none;stroke-opacity:1;paint-order:stroke fill markers"
           d="m 31.744963,54.691257 1.354298,13.608031 h 1.509853 L 34.090322,54.691257 Z" />
      </g>
    </g>
  </g>
  <path
     style="opacity:1;fill:#91bd8d;fill-opacity:1;stroke:none;stroke-width:1;stroke-linecap:butt;stroke-dasharray:none;stroke-opacity:1"
     d="m 124.7006,61.38841 0.16473,-7.518191 c 0,0 -3.50034,0.370625 -4.90048,-4.241586 -1.40013,-4.612211 0.90597,-5.435822 0.90597,-5.435822 0,0 -9.14206,-1.070692 -7.74192,-6.012347 1.40013,-4.941654 7.41248,-9.224422 7.41248,-9.224422 0,0 -1.97666,-5.271099 5.92999,-5.600543 7.90664,-0.329443 6.01234,5.188737 6.01234,5.188737 0,0 6.09471,0.329443 5.43582,7.330123 -0.65888,7.000679 -6.0947,8.071371 -6.0947,8.071371 0,0 4.85929,1.070692 1.40013,5.600541 -3.45916,4.529852 -6.83596,4.529852 -6.83596,4.529852 l -0.16472,7.38198 z"
     id="path8" />
  <path
     id="path8-4"
     style="fill:#699973;fill-opacity:1;stroke:none;stroke-width:1;stroke-linecap:butt;stroke-dasharray:none;stroke-opacity:1"
     d="m 131.34369,24.393661 c 1.17673,2.843696 -3.38683,5.03177 -3.38683,5.03177 0,0 7.0221,2.329483 6.70347,6.047176 -0.54535,6.362777 -6.52053,8.371582 -6.52053,8.371582 0,0 6.31449,1.082034 3.8225,4.343404 -1.16771,1.52823 -2.83905,3.557715 -5.83375,3.33003 -3.78904,-0.288077 -5.77785,-0.906675 -5.80016,-0.91364 1.56085,3.572368 4.53667,3.266468 4.53667,3.266468 h 0.99942 l -0.13849,7.564913 0.49816,0.02274 0.16485,-7.381978 c 0,0 3.3766,4.13e-4 6.83576,-4.529439 3.45916,-4.529849 -1.39992,-5.600692 -1.39992,-5.600692 0,0 5.43584,-1.070663 6.09472,-8.071342 0.65889,-7.00068 -5.43584,-7.330302 -5.43584,-7.330302 0,0 0.37779,-1.021753 0.0974,-2.265293 -0.28034,-1.243541 -0.90082,-1.568494 -1.23747,-1.885397 z" />
  <g
     id="g2"
     transform="translate(-22.520637,1.0444507)">
    <g
       id="g3-5-4"
       transform="translate(112.03955,6.0843385)">
      <g
         id="g2-1-5">
        <path
           id="path1-11-7-1-7-5"
           style="opacity:0.4775;fill:url(#linearGradient1);fill-opacity:1;stroke:none;stroke-width:0.650612;stroke-linecap:round;stroke-linejoin:round;stroke-dasharray:none;stroke-opacity:1;paint-order:markers fill stroke"
           d="m 43.465062,64.909259 -3.239029,0.93108 h 0.337061 l -9.514531,3.043215 4.374495,-0.424375 4.223256,0.421193 14.107024,-3.040033 h 0.277305 l 5.23168,-0.93108 h -7.962145 z" />
        <path
           id="path1-11-1-11-1"
           style="fill:#ffc126;fill-opacity:1;stroke:#bd9227;stroke-width:1.25722;stroke-linecap:round;stroke-linejoin:round;stroke-dasharray:none;stroke-opacity:1;paint-order:stroke fill markers"
           d="m 28.058621,54.858482 3.073994,13.399143 h 4.209975 4.210295 L 42.626879,54.858482 H 35.34259 Z" />
        <path
           id="path1-1-3-5-52-7"
           style="fill:#d19a10;fill-opacity:1;stroke:#9a7a2b;stroke-width:1.31068;stroke-linecap:round;stroke-linejoin:round;stroke-dasharray:none;stroke-opacity:1;paint-order:stroke fill markers"
           d="m 27.708969,54.788788 0.812542,3.532697 H 42.10517 l 0.812542,-3.532697 h -7.604541 z" />
        <path
           id="path1-11-6-2-7-1"
           style="opacity:0.6175;fill:#ffde90;fill-opacity:1;stroke:#ffde90;stroke-width:1.11785;stroke-linecap:round;stroke-linejoin:round;stroke-dasharray:none;stroke-opacity:1;paint-order:stroke fill markers"
           d="m 31.744963,54.691257 1.354298,13.608031 h 1.509853 L 34.090322,54.691257 Z" />
      </g>
    </g>
  </g>
  <path
     style="fill:#91bd8d;fill-opacity:1;stroke:none;stroke-width:1;stroke-linecap:butt;stroke-dasharray:none;stroke-opacity:1"
     d="m 146.95306,61.458104 0.16473,-7.518191 c 0,0 -3.50034,0.370625 -4.90048,-4.241586 -1.40013,-4.612211 0.90597,-5.435822 0.90597,-5.435822 0,0 -9.14206,-1.070692 -7.74192,-6.012347 1.40013,-4.941654 7.41248,-9.224422 7.41248,-9.224422 0,0 -1.97666,-5.271099 5.92999,-5.600543 7.90664,-0.329443 6.01234,5.188737 6.01234,5.188737 0,0 6.09471,0.329443 5.43582,7.330123 -0.65888,7.000679 -6.0947,8.071371 -6.0947,8.071371 0,0 4.85929,1.070692 1.40013,5.600541 -3.45916,4.529852 -6.83596,4.529852 -6.83596,4.529852 l -0.16472,7.38198 z"
     id="path8-6" />
  <g
     id="g3-57"
     transform="translate(19.532517)">
    <rect
       style="fill:#91bd8d;fill-opacity:1;stroke:#699973;stroke-width:0.5;stroke-dasharray:none;stroke-opacity:1"
       id="rect1-3-6"
       width="12.610822"
       height="7.7066135"
       x="64.447372"
       y="68.058411"
       ry="0.30025768" />
    <circle
       style="fill:none;fill-opacity:1;stroke:#699973;stroke-width:0.875595;stroke-dasharray:none;stroke-opacity:1"
       id="path2-1-1"
       cx="71.649857"
       cy="73.41111"
       r="1.0622027" />
  </g>
  <path
     style="opacity:1;fill:none;fill-opacity:1;stroke:#c0e2e9;stroke-width:1.4;stroke-linecap:butt;stroke-dasharray:none;stroke-opacity:1"
     d="M 58.991984,71.211111 H 98.734733 L 110.66997,59.676213 h 11.13456"
     id="path1" />
  <g
     id="g3">
    <rect
       style="fill:#91bd8d;fill-opacity:1;stroke:#699973;stroke-width:0.5;stroke-dasharray:none;stroke-opacity:1"
       id="rect1-3"
       width="12.610822"
       height="7.7066135"
       x="64.447372"
       y="68.058411"
       ry="0.30025768" />
    <circle
       style="fill:none;fill-opacity:1;stroke:#699973;stroke-width:0.875595;stroke-dasharray:none;stroke-opacity:1"
       id="path2-1"
       cx="71.649857"
       cy="73.41111"
       r="1.0622027" />
  </g>
  <path
     style="opacity:0.58797;fill:url(#linearGradient5);fill-opacity:1;stroke:none;stroke-width:0.480755;stroke-linecap:butt;stroke-dasharray:none;stroke-opacity:1"
     d="m 58.906939,68.027623 -2.244882,0.517362 -6.755093,0.594507 -28.842145,6.822736 13.920654,-0.06932 27.9659,-6.857376 -1.716415,-0.526991 2.244882,-0.517362"
     id="path7-3" />
  <path
     style="fill:none;fill-opacity:1;stroke:#c0e2e9;stroke-width:1.4;stroke-linecap:butt;stroke-dasharray:none;stroke-opacity:1"
     d="m 145.32923,59.682825 h -11.13456 l -9.60974,9.228061 H 78.177665 L 75.463368,71.13016 H 57.262405 V 59.74641 l -2.796698,-1.520955 h -3.334781 l 0.02108,10.833263 H 45.95962 V 46.461842 L 32.651799,40.824425 h -4.484365 v 25.723197"
     id="path1-9" />
  <path
     id="path8-4-6"
     style="fill:#699973;fill-opacity:1;stroke:none;stroke-width:1;stroke-linecap:butt;stroke-dasharray:none;stroke-opacity:1"
     d="m 153.64732,24.439565 c 1.17673,2.843696 -3.38683,5.03177 -3.38683,5.03177 0,0 7.0221,2.329483 6.70347,6.047176 -0.54535,6.362777 -6.52053,8.371582 -6.52053,8.371582 0,0 6.31449,1.082034 3.8225,4.343404 -1.16771,1.52823 -2.83905,3.557715 -5.83375,3.33003 -3.78904,-0.288077 -5.77785,-0.906675 -5.80016,-0.91364 1.56085,3.572368 4.53667,3.266468 4.53667,3.266468 h 0.99942 l -0.13849,7.564913 0.49816,0.02274 0.16485,-7.381978 c 0,0 3.3766,4.13e-4 6.83576,-4.529439 3.45916,-4.529849 -1.39992,-5.600692 -1.39992,-5.600692 0,0 5.43584,-1.070663 6.09472,-8.071342 0.65889,-7.00068 -5.43584,-7.330302 -5.43584,-7.330302 0,0 0.37779,-1.021753 0.0974,-2.265293 -0.28034,-1.243541 -0.90082,-1.568494 -1.23747,-1.885397 z" />
  <rect
     style="fill:#c0e2e9;fill-opacity:1;stroke:none;stroke-width:1.1967;stroke-linecap:butt;stroke-dasharray:none;stroke-opacity:1"
     id="rect7"
     width="12.894584"
     height="24.021017"
     x="21.494932"
     y="51.494003"
     ry="0.42999956" />
  <path
     style="fill:none;fill-opacity:1;stroke:#d2d2d2;stroke-width:1;stroke-linecap:butt;stroke-linejoin:round;stroke-dasharray:none;stroke-opacity:1"
     d="m 25.770299,42.960003 v 2.186144 l -4.275366,2.366467 v 28.00241 h 12.894584 v -28.00241 l -4.09884,-2.366467 v -2.186144"
     id="path7" />
  <path
     id="path4"
     style="fill:#c0e2e9;fill-opacity:1;stroke:#d2d2d2;stroke-width:0.7;stroke-linecap:butt;stroke-linejoin:round;stroke-dasharray:none;stroke-opacity:1"
     d="m 48.588334,75.665024 a 4.4843229,4.4843229 0 0 1 -4.484068,-4.484068 4.4843229,4.4843229 0 0 1 0.697426,-2.397941 l -0.005,0.004 v -3.322898 h 2.306061 v 1.485646 l -0.02677,0.02134 a 4.4843229,4.4843229 0 0 1 1.512414,-0.274557 4.4843229,4.4843229 0 0 1 1.512776,0.274557 l -0.02677,-0.02134 v -1.485646 h 2.30606 v 3.322898 l -0.005,-0.004 a 4.4843229,4.4843229 0 0 1 0.697426,2.397941 4.4843229,4.4843229 0 0 1 -4.484429,4.484068 z" />
  <circle
     style="fill:none;fill-opacity:1;stroke:#8c8c8c;stroke-width:0.817222;stroke-dasharray:none;stroke-opacity:1"
     id="path2-1-28"
     cx="46.583557"
     cy="-72.54628"
     r="0.99139029"
     transform="scale(1,-1)" />
  <circle
     style="fill:none;fill-opacity:1;stroke:#8c8c8c;stroke-width:0.817222;stroke-dasharray:none;stroke-opacity:1"
     id="path2-1-28-8"
     cx="48.496117"
     cy="-68.685173"
     r="0.99139029"
     transform="scale(1,-1)" />
  <circle
     style="fill:none;fill-opacity:1;stroke:#8c8c8c;stroke-width:0.817222;stroke-dasharray:none;stroke-opacity:1"
     id="path2-1-28-0"
     cx="50.785641"
     cy="-72.245224"
     r="0.99139029"
     transform="scale(1,-1)" />
  <path
     style="fill:#d2d2d2;fill-opacity:1;stroke:#8c8c8c;stroke-width:0.7;stroke-linecap:square;stroke-linejoin:round;stroke-dasharray:none;stroke-opacity:1;paint-order:markers fill stroke"
     d="M 46.583556,72.54628 50.78564,72.245228 48.496115,68.685177 Z"
     id="path3" />
  <rect
     style="opacity:0.58797;fill:#ffffff;fill-opacity:0.602848;stroke:none;stroke-width:1.01698;stroke-linecap:square;stroke-linejoin:round;stroke-dasharray:none;stroke-opacity:0.995253;paint-order:markers fill stroke"
     id="rect8"
     width="2.2237449"
     height="24.489309"
     x="24.337652"
     y="51.497417"
     ry="0.41074747" />
</svg>
